# Blender v2.78 (sub 0) OBJ File: 'psyk02.blend'
# www.blender.org
mtllib psyk02.mtl
o Cube
v 1.000000 -1.000000 -1.000000
v 1.000000 -1.000000 1.000000
v -1.000000 -1.000000 1.000000
v -1.000000 -1.000000 -1.000000
v 1.000000 1.000000 -0.999999
v 0.999999 1.000000 1.000001
v -1.000000 1.000000 1.000000
v -1.000000 1.000000 -1.000000
v 1.000000 -1.000000 -0.600000
v 1.000000 -1.000000 -0.200000
v 1.000000 -1.000000 0.200000
v 1.000000 -1.000000 0.600000
v 0.600000 -1.000000 -1.000000
v 0.200000 -1.000000 -1.000000
v -0.200000 -1.000000 -1.000000
v -0.600000 -1.000000 -1.000000
v 1.000000 -0.600000 -1.000000
v 1.000000 -0.200000 -1.000000
v 1.000000 0.200000 -1.000000
v 1.000000 0.600000 -1.000000
v 0.600000 -1.000000 1.000000
v 0.200000 -1.000000 1.000000
v -0.200000 -1.000000 1.000000
v -0.600000 -1.000000 1.000000
v 1.000000 -0.600000 1.000000
v 1.000000 -0.200000 1.000000
v 1.000000 0.200000 1.000000
v 1.000000 0.600000 1.000000
v -1.000000 -1.000000 0.600000
v -1.000000 -1.000000 0.200000
v -1.000000 -1.000000 -0.200000
v -1.000000 -1.000000 -0.600000
v -1.000000 -0.600000 1.000000
v -1.000000 -0.200000 1.000000
v -1.000000 0.200000 1.000000
v -1.000000 0.600000 1.000000
v -1.000000 -0.600000 -1.000000
v -1.000000 -0.200000 -1.000000
v -1.000000 0.200000 -1.000000
v -1.000000 0.600000 -1.000000
v 1.000000 1.000000 -0.599999
v 1.000000 1.000000 -0.199999
v 1.000000 1.000000 0.200001
v 1.000000 1.000000 0.600001
v 0.600000 1.000000 -1.000000
v 0.200000 1.000000 -1.000000
v -0.200000 1.000000 -1.000000
v -0.600000 1.000000 -1.000000
v 0.599999 1.000000 1.000000
v 0.199999 1.000000 1.000000
v -0.200000 1.000000 1.000000
v -0.600000 1.000000 1.000000
v -1.000000 1.000000 0.600000
v -1.000000 1.000000 0.200000
v -1.000000 1.000000 -0.200000
v -1.000000 1.000000 -0.600000
v 0.600000 0.600000 -1.000000
v 0.200000 0.600000 -1.000000
v -0.200000 0.600000 -1.000000
v -0.600000 0.600000 -1.000000
v 0.600000 0.200000 -1.000000
v 0.200000 0.200000 -1.000000
v -0.200000 0.200000 -1.000000
v -0.600000 0.200000 -1.000000
v 0.600000 -0.200000 -1.000000
v 0.200000 -0.200000 -1.000000
v -0.200000 -0.200000 -1.000000
v -0.600000 -0.200000 -1.000000
v 0.600000 -0.600000 -1.000000
v 0.200000 -0.600000 -1.000000
v -0.200000 -0.600000 -1.000000
v -0.600000 -0.600000 -1.000000
v -1.000000 -0.600000 0.600000
v -1.000000 -0.600000 0.200000
v -1.000000 -0.600000 -0.200000
v -1.000000 -0.600000 -0.600000
v -1.000000 -0.200000 0.600000
v -1.000000 -0.200000 0.200000
v -1.000000 -0.200000 -0.200000
v -1.000000 -0.200000 -0.600000
v -1.000000 0.200000 0.600000
v -1.000000 0.200000 0.200000
v -1.000000 0.200000 -0.200000
v -1.000000 0.200000 -0.600000
v -1.000000 0.600000 0.600000
v -1.000000 0.600000 0.200000
v -1.000000 0.600000 -0.200000
v -1.000000 0.600000 -0.600000
v 0.600000 -0.600000 1.000000
v 0.200000 -0.600000 1.000000
v -0.200000 -0.600000 1.000000
v -0.600000 -0.600000 1.000000
v 0.600000 -0.200000 1.000000
v 0.200000 -0.200000 1.000000
v -0.200000 -0.200000 1.000000
v -0.600000 -0.200000 1.000000
v 0.600000 0.200000 1.000000
v 0.200000 0.200000 1.000000
v -0.200000 0.200000 1.000000
v -0.600000 0.200000 1.000000
v 0.600000 0.600000 1.000000
v 0.200000 0.600000 1.000000
v -0.200000 0.600000 1.000000
v -0.600000 0.600000 1.000000
v 1.000000 -0.600000 -0.600000
v 1.000000 -0.600000 -0.200000
v 1.000000 -0.600000 0.200000
v 1.000000 -0.600000 0.600000
v 1.000000 -0.200000 -0.600000
v 1.000000 -0.200000 -0.200000
v 1.000000 -0.200000 0.200000
v 1.000000 -0.200000 0.600000
v 1.000000 0.200000 -0.600000
v 1.000000 0.200000 -0.200000
v 1.000000 0.200000 0.200000
v 1.000000 0.200000 0.600000
v 1.000000 0.600000 -0.600000
v 1.000000 0.600000 -0.200000
v 1.000000 0.600000 0.200000
v 1.000000 0.600000 0.600001
v 0.600000 1.000000 -0.600000
v 0.600000 1.000000 -0.200000
v 0.600000 1.000000 0.200000
v 0.600000 1.000000 0.600000
v 0.200000 1.000000 -0.600000
v 0.200000 1.000000 -0.200000
v 0.200000 1.000000 0.200000
v 0.200000 1.000000 0.600000
v -0.200000 1.000000 -0.600000
v -0.200000 1.000000 -0.200000
v -0.200000 1.000000 0.200000
v -0.200000 1.000000 0.600000
v -0.600000 1.000000 -0.600000
v -0.600000 1.000000 -0.200000
v -0.600000 1.000000 0.200000
v -0.600000 1.000000 0.600000
v 0.600000 -1.000000 -0.600000
v 0.200000 -1.000000 -0.600000
v -0.200000 -1.000000 -0.600000
v -0.600000 -1.000000 -0.600000
v 0.600000 -1.000000 -0.200000
v 0.200000 -1.000000 -0.200000
v -0.200000 -1.000000 -0.200000
v -0.600000 -1.000000 -0.200000
v 0.600000 -1.000000 0.200000
v 0.200000 -1.000000 0.200000
v -0.200000 -1.000000 0.200000
v -0.600000 -1.000000 0.200000
v 0.600000 -1.000000 0.600000
v 0.200000 -1.000000 0.600000
v -0.200000 -1.000000 0.600000
v -0.600000 -1.000000 0.600000
v 1.343475 -0.600000 -0.600000
v 1.343475 -0.600000 -0.200000
v 1.343474 -0.600000 0.200000
v 1.343474 -0.600000 0.600000
v 1.343475 -0.200000 -0.600000
v 1.343475 -0.200000 -0.200000
v 1.343474 -0.200000 0.200000
v 1.343474 -0.200000 0.600000
v 1.343475 0.200000 -0.600000
v 1.343475 0.200000 -0.200000
v 1.343474 0.200000 0.200000
v 1.343474 0.200000 0.600001
v 1.343475 0.600000 -0.599999
v 1.343475 0.600000 -0.199999
v 1.343474 0.600000 0.200001
v 1.343474 0.600000 0.600001
v 0.600000 1.079784 -0.600000
v 0.600000 1.079784 -0.200000
v 0.600000 1.079784 0.200000
v 0.600000 1.079784 0.600000
v 0.200000 1.079784 -0.600000
v 0.200000 1.079784 -0.200000
v 0.200000 1.079784 0.200000
v 0.200000 1.079784 0.600000
v -0.200000 1.079784 -0.600000
v -0.200000 1.079784 -0.200000
v -0.200000 1.079784 0.200000
v -0.200000 1.079784 0.600000
v -0.600000 1.079784 -0.600000
v -0.600000 1.079784 -0.200000
v -0.600000 1.079784 0.200000
v -0.600000 1.079784 0.600000
v 0.200000 1.423958 -0.200000
v 0.200000 1.423958 0.200000
v -0.200000 1.423958 -0.200000
v -0.200000 1.423958 0.200000
v -0.200000 -0.600000 1.062824
v -0.600000 -0.600000 1.062824
v 0.600000 -0.200000 1.062824
v 0.200000 -0.200000 1.062824
v -0.200000 -0.200000 1.062824
v -0.600000 -0.200000 1.062824
v 0.600000 0.200000 1.062824
v 0.200000 0.200000 1.062824
v -0.200000 0.200000 1.062824
v -0.600000 0.200000 1.062824
v -0.200000 0.600000 1.062824
v -0.600000 0.600000 1.062824
v 0.451259 -0.451259 1.000000
v 0.348741 -0.451259 1.000000
v 0.451259 -0.348741 1.000000
v 0.348741 -0.348741 1.000000
v -0.348741 -0.051259 1.000000
v -0.451259 -0.051259 1.000000
v 0.451259 0.348741 1.000000
v 0.348741 0.348741 1.000000
v -0.348741 0.051259 1.000000
v -0.451259 0.051259 1.000000
v 0.451259 0.451259 1.000000
v 0.348741 0.451259 1.000000
v 0.451259 -0.451259 1.181065
v 0.348741 -0.451259 1.181065
v 0.451259 -0.348741 1.181065
v 0.348741 -0.348741 1.181065
v -0.348741 -0.051259 1.181065
v -0.451259 -0.051259 1.181065
v 0.451259 0.348741 1.181065
v 0.348741 0.348741 1.181065
v -0.348741 0.051259 1.181065
v -0.451259 0.051259 1.181065
v 0.451259 0.451259 1.181065
v 0.348741 0.451259 1.181065
v -1.364660 -0.600000 0.600000
v -1.364660 -0.600000 0.200000
v -1.364660 -0.200000 0.600000
v -1.364660 -0.200000 0.200000
v -1.364660 0.200000 -0.200000
v -1.364660 0.200000 -0.600000
v -1.364660 0.600000 -0.200000
v -1.364660 0.600000 -0.600000
v -1.717517 -0.600000 0.600000
v -1.717517 -0.600000 0.200000
v -1.717517 -0.536848 0.600000
v -1.717517 -0.536848 0.200000
v -1.717517 0.200000 -0.200000
v -1.717517 0.200000 -0.600000
v -1.717517 0.263152 -0.200000
v -1.717517 0.263152 -0.600000
v 0.600001 0.600000 -1.672534
v 0.200001 0.600000 -1.672534
v 0.600000 0.200000 -1.672534
v 0.200000 0.200000 -1.672534
v -0.200000 0.200000 -1.672534
v -0.600000 0.200000 -1.672534
v 0.200000 -0.200000 -1.672534
v -0.200000 -0.200000 -1.672534
v -0.600000 -0.200000 -1.672534
v -0.200000 0.200000 -1.441656
v -0.600000 0.200000 -1.441656
v -0.600000 -0.200000 -1.441657
v -0.200000 -0.200000 -1.441657
v 0.200000 -0.200000 -1.441656
v 0.600001 0.600000 -1.278918
v 0.200000 0.600000 -1.278918
v 0.600000 0.200000 -1.278918
v 0.600001 1.126112 -1.672534
v 0.200001 1.126112 -1.672534
v 0.600001 1.126112 -1.616337
v 0.200000 1.126112 -1.616337
v -0.200000 0.338426 -1.441656
v -0.200000 0.338426 -1.672534
v -0.600000 0.338426 -1.672534
v -0.600000 0.338426 -1.441656
v -0.329151 0.338426 -1.516202
v -0.329151 0.338426 -1.597988
v -0.470848 0.338426 -1.597988
v -0.470848 0.338426 -1.516202
v -0.329151 0.817455 -1.516202
v -0.329151 0.817455 -1.597988
v -0.470848 0.817455 -1.597988
v -0.470848 0.817455 -1.516202
v 0.053378 -1.000000 -0.053378
v -0.053378 -1.000000 -0.053378
v 0.053378 -1.000000 0.053378
v -0.053378 -1.000000 0.053378
v 0.053378 -1.795249 -0.053378
v -0.053378 -1.795249 -0.053378
v 0.053378 -1.795249 0.053378
v -0.053378 -1.795249 0.053378
v 0.600000 -1.114257 -0.600000
v 0.200000 -1.114257 -0.600000
v -0.200000 -1.114257 -0.600000
v -0.600000 -1.114257 -0.600000
v 0.600000 -1.114257 -0.200000
v 0.200000 -1.114257 -0.200000
v -0.200000 -1.114257 -0.200000
v -0.600000 -1.114257 -0.200000
v 0.600000 -1.114257 0.200000
v 0.200000 -1.114257 0.200000
v -0.200000 -1.114257 0.200000
v -0.600000 -1.114257 0.200000
v 0.600000 -1.114257 0.600000
v 0.200000 -1.114257 0.600000
v -0.200000 -1.114257 0.600000
v -0.600000 -1.114257 0.600000
v 0.480287 -1.237265 -0.491688
v 0.160096 -1.237265 -0.491688
v -0.160095 -1.237265 -0.491688
v -0.480287 -1.237265 -0.491688
v 0.480287 -1.237265 -0.171497
v 0.160096 -1.237265 -0.171497
v -0.160095 -1.237265 -0.171497
v -0.480287 -1.237265 -0.171497
v 0.480287 -1.237265 0.148694
v 0.160096 -1.237265 0.148694
v -0.160095 -1.237265 0.148694
v -0.480287 -1.237265 0.148694
v 0.480287 -1.237265 0.468885
v 0.160096 -1.237265 0.468885
v -0.160096 -1.237265 0.468885
v -0.480287 -1.237265 0.468885
vn 0.0000 -1.0000 0.0000
vn 0.0000 1.0000 0.0000
vn 1.0000 0.0000 0.0000
vn -0.0000 -0.0000 1.0000
vn -1.0000 -0.0000 -0.0000
vn 0.0000 0.0000 -1.0000
vn -0.6905 0.7233 -0.0000
vn -0.0000 0.5399 0.8418
vn -0.0000 0.2257 0.9742
vn -0.7166 -0.6974 -0.0000
vn -0.9512 0.3086 0.0000
vn 0.9512 0.3086 0.0000
vn 0.7166 -0.6974 0.0000
vn 0.0000 -0.6609 -0.7505
vn -0.0000 -0.7293 0.6842
usemtl Material
s off
f 152//1 24//1 3//1 29//1
f 136//2 53//2 7//2 52//2
f 120//3 44//3 6//3 28//3
f 104//4 52//4 7//4 36//4
f 88//5 56//5 8//5 40//5
f 72//6 16//6 4//6 37//6
f 48//6 60//6 40//6 8//6
f 60//6 64//6 39//6 40//6
f 64//6 68//6 38//6 39//6
f 68//6 72//6 37//6 38//6
f 5//6 20//6 57//6 45//6
f 45//6 57//6 58//6 46//6
f 46//6 58//6 59//6 47//6
f 47//6 59//6 60//6 48//6
f 20//6 19//6 61//6 57//6
f 253//1 252//1 249//1 248//1
f 58//6 62//6 63//6 59//6
f 59//6 63//6 64//6 60//6
f 19//6 18//6 65//6 61//6
f 61//6 65//6 66//6 62//6
f 252//5 251//5 246//5 249//5
f 251//4 250//4 262//4 265//4
f 18//6 17//6 69//6 65//6
f 65//6 69//6 70//6 66//6
f 66//6 70//6 71//6 67//6
f 67//6 71//6 72//6 68//6
f 17//6 1//6 13//6 69//6
f 69//6 13//6 14//6 70//6
f 70//6 14//6 15//6 71//6
f 71//6 15//6 16//6 72//6
f 32//5 76//5 37//5 4//5
f 76//5 80//5 38//5 37//5
f 80//5 84//5 39//5 38//5
f 84//5 88//5 40//5 39//5
f 3//5 33//5 73//5 29//5
f 29//5 73//5 74//5 30//5
f 30//5 74//5 75//5 31//5
f 31//5 75//5 76//5 32//5
f 33//5 34//5 77//5 73//5
f 83//4 87//4 231//4 229//4
f 74//5 78//5 79//5 75//5
f 75//5 79//5 80//5 76//5
f 34//5 35//5 81//5 77//5
f 77//5 81//5 82//5 78//5
f 78//5 82//5 83//5 79//5
f 79//5 83//5 84//5 80//5
f 35//5 36//5 85//5 81//5
f 81//5 85//5 86//5 82//5
f 82//5 86//5 87//5 83//5
f 78//6 74//6 226//6 228//6
f 36//5 7//5 53//5 85//5
f 85//5 53//5 54//5 86//5
f 86//5 54//5 55//5 87//5
f 87//5 55//5 56//5 88//5
f 24//4 92//4 33//4 3//4
f 92//4 96//4 34//4 33//4
f 96//4 100//4 35//4 34//4
f 100//4 104//4 36//4 35//4
f 2//4 25//4 89//4 21//4
f 21//4 89//4 90//4 22//4
f 22//4 90//4 91//4 23//4
f 23//4 91//4 92//4 24//4
f 25//4 26//4 93//4 89//4
f 100//4 96//4 206//4 210//4
f 90//4 94//4 95//4 91//4
f 91//3 95//3 193//3 189//3
f 26//4 27//4 97//4 93//4
f 92//1 91//1 189//1 190//1
f 94//4 98//4 99//4 95//4
f 96//4 95//4 205//4 206//4
f 27//4 28//4 101//4 97//4
f 102//4 98//4 208//4 212//4
f 98//4 102//4 103//4 99//4
f 93//3 97//3 195//3 191//3
f 28//4 6//4 49//4 101//4
f 101//4 49//4 50//4 102//4
f 102//4 50//4 51//4 103//4
f 103//4 51//4 52//4 104//4
f 12//3 108//3 25//3 2//3
f 108//3 112//3 26//3 25//3
f 112//3 116//3 27//3 26//3
f 116//3 120//3 28//3 27//3
f 1//3 17//3 105//3 9//3
f 9//3 105//3 106//3 10//3
f 10//3 106//3 107//3 11//3
f 11//3 107//3 108//3 12//3
f 17//3 18//3 109//3 105//3
f 117//2 118//2 166//2 165//2
f 106//3 110//3 111//3 107//3
f 115//6 119//6 167//6 163//6
f 18//3 19//3 113//3 109//3
f 109//3 113//3 114//3 110//3
f 110//3 114//3 115//3 111//3
f 111//3 115//3 116//3 112//3
f 19//3 20//3 117//3 113//3
f 114//1 113//1 161//1 162//1
f 114//3 118//3 119//3 115//3
f 120//4 116//4 164//4 168//4
f 20//3 5//3 41//3 117//3
f 117//3 41//3 42//3 118//3
f 118//3 42//3 43//3 119//3
f 119//3 43//3 44//3 120//3
f 44//2 124//2 49//2 6//2
f 124//2 128//2 50//2 49//2
f 128//2 132//2 51//2 50//2
f 132//2 136//2 52//2 51//2
f 5//2 45//2 121//2 41//2
f 41//2 121//2 122//2 42//2
f 42//2 122//2 123//2 43//2
f 43//2 123//2 124//2 44//2
f 45//2 46//2 125//2 121//2
f 133//5 134//5 182//5 181//5
f 122//2 126//2 127//2 123//2
f 131//6 135//6 183//6 179//6
f 46//2 47//2 129//2 125//2
f 125//2 129//2 130//2 126//2
f 130//5 131//5 188//5 187//5
f 127//2 131//2 132//2 128//2
f 47//2 48//2 133//2 129//2
f 130//3 129//3 177//3 178//3
f 130//2 134//2 135//2 131//2
f 136//4 132//4 180//4 184//4
f 48//2 8//2 56//2 133//2
f 133//2 56//2 55//2 134//2
f 134//2 55//2 54//2 135//2
f 135//2 54//2 53//2 136//2
f 16//1 140//1 32//1 4//1
f 140//1 144//1 31//1 32//1
f 144//1 148//1 30//1 31//1
f 148//1 152//1 29//1 30//1
f 1//1 9//1 137//1 13//1
f 13//1 137//1 138//1 14//1
f 14//1 138//1 139//1 15//1
f 15//1 139//1 140//1 16//1
f 9//1 10//1 141//1 137//1
f 150//5 146//5 291//5 295//5
f 144//5 140//5 285//5 289//5
f 140//6 139//6 284//6 285//6
f 10//1 11//1 145//1 141//1
f 149//4 150//4 295//4 294//4
f 146//1 147//1 277//1 276//1
f 147//3 151//3 296//3 292//3
f 11//1 12//1 149//1 145//1
f 141//3 145//3 290//3 286//3
f 146//1 150//1 151//1 147//1
f 146//5 142//5 287//5 291//5
f 12//1 2//1 21//1 149//1
f 149//1 21//1 22//1 150//1
f 150//1 22//1 23//1 151//1
f 151//1 23//1 24//1 152//1
f 153//3 157//3 158//3 154//3
f 155//3 159//3 160//3 156//3
f 161//3 165//3 166//3 162//3
f 163//3 167//3 168//3 164//3
f 108//1 107//1 155//1 156//1
f 112//4 108//4 156//4 160//4
f 118//4 114//4 162//4 166//4
f 113//6 117//6 165//6 161//6
f 107//6 111//6 159//6 155//6
f 111//2 112//2 160//2 159//2
f 116//1 115//1 163//1 164//1
f 119//2 120//2 168//2 167//2
f 106//1 105//1 153//1 154//1
f 110//4 106//4 154//4 158//4
f 105//6 109//6 157//6 153//6
f 109//2 110//2 158//2 157//2
f 169//2 173//2 174//2 170//2
f 171//2 175//2 176//2 172//2
f 177//2 181//2 182//2 178//2
f 179//2 183//2 184//2 180//2
f 128//4 124//4 172//4 176//4
f 124//3 123//3 171//3 172//3
f 134//4 130//4 178//4 182//4
f 129//6 133//6 181//6 177//6
f 123//6 127//6 175//6 171//6
f 127//5 128//5 176//5 175//5
f 132//3 131//3 179//3 180//3
f 135//5 136//5 184//5 183//5
f 126//4 122//4 170//4 174//4
f 122//3 121//3 169//3 170//3
f 121//6 125//6 173//6 169//6
f 125//5 126//5 174//5 173//5
f 185//2 187//2 188//2 186//2
f 126//6 130//6 187//6 185//6
f 131//4 127//4 186//4 188//4
f 127//3 126//3 185//3 186//3
f 189//4 193//4 194//4 190//4
f 191//4 195//4 196//4 192//4
f 197//4 199//4 200//4 198//4
f 95//2 96//2 194//2 193//2
f 100//1 99//1 197//1 198//1
f 103//2 104//2 200//2 199//2
f 94//1 93//1 191//1 192//1
f 98//5 94//5 192//5 196//5
f 97//2 98//2 196//2 195//2
f 99//3 103//3 199//3 197//3
f 96//5 92//5 190//5 194//5
f 104//5 100//5 198//5 200//5
f 205//3 209//3 221//3 217//3
f 208//1 207//1 219//1 220//1
f 207//3 211//3 223//3 219//3
f 99//4 100//4 210//4 209//4
f 90//4 89//4 201//4 202//4
f 89//4 93//4 203//4 201//4
f 93//4 94//4 204//4 203//4
f 98//4 97//4 207//4 208//4
f 101//4 102//4 212//4 211//4
f 97//4 101//4 211//4 207//4
f 94//4 90//4 202//4 204//4
f 95//4 99//4 209//4 205//4
f 213//4 215//4 216//4 214//4
f 217//4 221//4 222//4 218//4
f 219//4 223//4 224//4 220//4
f 203//2 204//2 216//2 215//2
f 201//3 203//3 215//3 213//3
f 212//5 208//5 220//5 224//5
f 209//2 210//2 222//2 221//2
f 210//5 206//5 218//5 222//5
f 206//1 205//1 217//1 218//1
f 204//5 202//5 214//5 216//5
f 202//1 201//1 213//1 214//1
f 211//2 212//2 224//2 223//2
f 227//7 228//7 236//7 235//7
f 228//6 226//6 234//6 236//6
f 74//1 73//1 225//1 226//1
f 84//1 83//1 229//1 230//1
f 88//6 84//6 230//6 232//6
f 77//2 78//2 228//2 227//2
f 87//2 88//2 232//2 231//2
f 73//4 77//4 227//4 225//4
f 233//5 235//5 236//5 234//5
f 237//5 239//5 240//5 238//5
f 229//4 231//4 239//4 237//4
f 230//1 229//1 237//1 238//1
f 232//6 230//6 238//6 240//6
f 231//7 232//7 240//7 239//7
f 225//4 227//4 235//4 233//4
f 226//1 225//1 233//1 234//1
f 241//6 243//6 244//6 242//6
f 244//6 247//6 248//6 245//6
f 245//6 248//6 249//6 246//6
f 242//5 256//5 261//5 259//5
f 255//3 257//3 243//3 241//3
f 61//1 62//1 244//1 243//1 257//1
f 62//3 66//3 254//3 247//3 244//3
f 63//2 62//2 244//2 245//2 250//2
f 62//5 58//5 256//5 242//5 244//5
f 254//1 253//1 248//1 247//1
f 66//1 67//1 253//1 254//1
f 64//2 63//2 250//2 251//2
f 68//5 64//5 251//5 252//5
f 67//1 68//1 252//1 253//1
f 57//3 61//3 257//3 255//3
f 58//2 57//2 255//2 256//2
f 261//2 260//2 258//2 259//2
f 255//3 241//3 258//3 260//3
f 256//8 255//8 260//8 261//8
f 241//6 242//6 259//6 258//6
f 262//2 263//2 267//2 266//2
f 250//3 245//3 263//3 262//3
f 245//6 246//6 264//6 263//6
f 246//5 251//5 265//5 264//5
f 266//3 267//3 271//3 270//3
f 263//2 264//2 268//2 267//2
f 264//2 265//2 269//2 268//2
f 265//2 262//2 266//2 269//2
f 273//2 270//2 271//2 272//2
f 267//6 268//6 272//6 271//6
f 268//5 269//5 273//5 272//5
f 269//4 266//4 270//4 273//4
f 275//6 274//6 278//6 279//6
f 142//1 146//1 276//1 274//1
f 147//1 143//1 275//1 277//1
f 143//1 142//1 274//1 275//1
f 278//1 280//1 281//1 279//1
f 276//4 277//4 281//4 280//4
f 274//3 276//3 280//3 278//3
f 277//5 275//5 279//5 281//5
f 287//9 288//9 304//9 303//9
f 297//10 293//10 309//10 313//10
f 291//11 287//11 303//11 307//11
f 288//12 292//12 308//12 304//12
f 282//13 286//13 302//13 298//13
f 283//14 282//14 298//14 299//14
f 293//10 289//10 305//10 309//10
f 145//3 149//3 294//3 290//3
f 139//6 138//6 283//6 284//6
f 148//5 144//5 289//5 293//5
f 142//4 143//4 288//4 287//4
f 151//4 152//4 297//4 296//4
f 138//6 137//6 282//6 283//6
f 137//3 141//3 286//3 282//3
f 143//3 147//3 292//3 288//3
f 152//5 148//5 293//5 297//5
f 298//1 302//1 303//1 299//1
f 299//1 303//1 304//1 300//1
f 300//1 304//1 305//1 301//1
f 302//1 306//1 307//1 303//1
f 304//1 308//1 309//1 305//1
f 306//1 310//1 311//1 307//1
f 308//1 312//1 313//1 309//1
f 296//15 297//15 313//15 312//15
f 286//13 290//13 306//13 302//13
f 292//12 296//12 312//12 308//12
f 295//11 291//11 307//11 311//11
f 285//14 284//14 300//14 301//14
f 294//15 295//15 311//15 310//15
f 289//10 285//10 301//10 305//10
f 290//13 294//13 310//13 306//13
f 284//14 283//14 299//14 300//14
